<?xml version="1.0" standalone="no"?>
<!DOCTYPE svg PUBLIC "-//W3C//DTD SVG 20010904//EN"
 "http://www.w3.org/TR/2001/REC-SVG-20010904/DTD/svg10.dtd">
<svg version="1.0" xmlns="http://www.w3.org/2000/svg"
 width="74.000000pt" height="72.000000pt" viewBox="0 0 74.000000 72.000000"
 preserveAspectRatio="xMidYMid meet">

<g transform="translate(0.000000,72.000000) scale(0.100000,-0.100000)"
fill="#000000" stroke="none">
<path d="M275 707 l-50 -12 -5 -95 -5 -95 -95 -5 -95 -5 -13 -62 c-11 -52 -11
-73 0 -130 l13 -68 98 -3 97 -3 0 -93 0 -94 44 -11 c57 -14 112 -14 175 1 l51
11 0 94 0 93 94 0 94 0 12 36 c16 47 16 147 1 202 l-12 42 -94 0 -95 0 0 90
c0 89 -1 91 -26 101 -44 16 -135 19 -189 6z"/>
</g>
</svg>
